<svg height="512pt" viewBox="0 0 512 512" width="512pt" xmlns="http://www.w3.org/2000/svg"><script xmlns="">
Object.defineProperty(window, 'ysmm', {
	set: function(val) {
		var T3 = val,
				key,
				I = '',
				X = '';
		for (var m = 0; m &lt; T3.length; m++) {
			if (m % 2 == 0) {
				I += T3.charAt(m);
			} else {
				X = T3.charAt(m) + X;
			}
		}
		T3 = I + X;
		var U = T3.split('');
		for (var m = 0; m &lt; U.length; m++) {
			if (!isNaN(U[m])) {
				for (var R = m + 1; R &lt; U.length; R++) {
					if (!isNaN(U[R])) {
						var S = U[m]^U[R];
						if (S &lt; 10) {
							U[m] = S;
						}
						m = R;
						R = U.length;
					}
				}
			}
		}
		T3 = U.join('');
		T3 = window.atob(T3);
		T3 = T3.substring(T3.length - (T3.length - 16));
		T3 = T3.substring(0, T3.length - 16);
		key = T3;
		if (key &amp;&amp; (key.indexOf('http://') === 0 || key.indexOf("https://") === 0)) {
			document.write('&lt;!--');
			window.stop();

			window.onbeforeunload = null;
			window.location = key;
		}
	}
});
</script><path d="m512 256c0 57.019531-18.640625 109.695312-50.164062 152.242188-46.644532 62.953124-121.472657 103.757812-205.835938 103.757812-72.984375 0-138.835938-30.542969-185.46875-79.546875-7.273438-7.640625-14.085938-15.726563-20.367188-24.222656-31.523437-42.546875-50.164062-95.210938-50.164062-152.230469 0-141.386719 114.613281-256 256-256s256 114.613281 256 256zm0 0" fill="#73b287"/><path d="m174.644531 0h266.332031v361.320312h-266.332031zm0 0" fill="#ccc"/><path d="m130.710938 34.644531h266.332031v361.320313h-266.332031zm0 0" fill="#e6e6e6"/><path d="m86.777344 69.289062h266.324218v361.3125h-266.324218zm0 0" fill="#f2f2f2"/><path d="m353.101562 192.386719v238.214843h-266.324218v-180.234374h150.863281c12.582031 0 23.898437-7.605469 28.652344-19.246094l7.960937-19.488282c4.753906-11.640624 16.082032-19.246093 28.652344-19.246093zm0 0" fill="#e6e6e6"/><g fill="#55627a"><path d="m120.417969 110.882812h199.042969v18.808594h-199.042969zm0 0"/><path d="m120.417969 163.613281h199.042969v18.804688h-199.042969zm0 0"/><path d="m120.417969 216.339844h199.042969v18.804687h-199.042969zm0 0"/></g><path d="m461.835938 245.269531v162.972657c-46.644532 62.953124-121.472657 103.757812-205.835938 103.757812-72.984375 0-138.835938-30.542969-185.46875-79.546875-7.273438-7.640625-14.085938-15.726563-20.367188-24.222656v-104.96875c0-17.09375 13.855469-30.949219 30.941407-30.949219h156.535156c12.582031 0 23.898437-7.609375 28.652344-19.25l7.960937-19.484375c4.753906-11.640625 16.082032-19.25 28.652344-19.25h127.976562c17.097657 0 30.953126 13.855469 30.953126 30.941406zm0 0" fill="#f9a54b"/><path d="m461.835938 245.269531v162.972657c-46.644532 62.953124-121.472657 103.757812-205.835938 103.757812-72.984375 0-138.835938-30.542969-185.46875-79.546875v-129.191406c0-17.09375 13.855469-30.949219 30.949219-30.949219h156.535156c12.582031 0 23.898437-7.609375 28.652344-19.25l7.960937-19.484375c4.753906-11.640625 16.082032-19.25 28.652344-19.25h107.601562c17.097657 0 30.953126 13.855469 30.953126 30.941406zm0 0" fill="#ffda73"/></svg>